<svg width="26" height="26" viewBox="0 0 26 26" fill="none" xmlns="http://www.w3.org/2000/svg">
<g clip-path="url(#clip0_4893_15478)">
<path fill-rule="evenodd" clip-rule="evenodd" d="M15.3137 4.68629L10 10L4.68629 15.3137C1.83392 18.1661 0.169735 21.9845 0.0122933 26H0V0H26V0.0122932C21.9845 0.169733 18.1661 1.83391 15.3137 4.68629ZM26 0.0122932C26.2086 0.00411262 26.4178 0 26.6274 0H214C222.837 0 230 7.16344 230 16V53.3726C230 57.616 228.314 61.6857 225.314 64.6863L220 70L214.686 75.3137C211.686 78.3143 207.616 80 203.373 80H16C7.16344 80 0 72.8366 0 64V26.6274C0 26.4178 0.00411268 26.2086 0.0122933 26H26V0.0122932Z" fill="white"/>
</g>
<defs>
<clipPath id="clip0_4893_15478">
<rect width="26" height="26" fill="white"/>
</clipPath>
</defs>
</svg>
