<svg width="200" height="40" viewBox="0 0 200 40" fill="none" xmlns="http://www.w3.org/2000/svg">
<g clip-path="url(#clip0_4764_9590)">
<path d="M66.1813 -0.0619607H26.1872V19.9324H9.52991C6.87706 19.9324 4.33287 20.9862 2.45703 22.8621C0.581182 24.7379 -0.472656 27.2821 -0.472656 29.9349C-0.472656 32.5878 0.581182 35.132 2.45703 37.0078C4.33287 38.8837 6.87706 39.9375 9.52991 39.9375H32.8624V26.6076H66.1813C67.9425 26.6234 69.6894 26.2902 71.3212 25.6272C72.9529 24.9641 74.4371 23.9844 75.6882 22.7446C76.9392 21.5048 77.9322 20.0294 78.6099 18.4037C79.2876 16.778 79.6365 15.0341 79.6365 13.2728C79.6365 11.5115 79.2876 9.76764 78.6099 8.14192C77.9322 6.5162 76.9392 5.04084 75.6882 3.80102C74.4371 2.56119 72.9529 1.58148 71.3212 0.91845C69.6894 0.255417 67.9425 -0.0778006 66.1813 -0.0619607ZM26.1872 33.2655H9.52991C8.64744 33.2655 7.80111 32.915 7.17711 32.291C6.55311 31.667 6.20255 30.8206 6.20255 29.9382C6.20255 29.0557 6.55311 28.2094 7.17711 27.5854C7.80111 26.9614 8.64744 26.6108 9.52991 26.6108H26.1872V33.2655ZM66.1813 19.9324H32.8624V6.61324H66.1813C67.0629 6.60202 67.9381 6.76599 68.7559 7.09563C69.5737 7.42527 70.3179 7.91402 70.9454 8.53353C71.5728 9.15304 72.071 9.89098 72.411 10.7045C72.751 11.5181 72.9261 12.3911 72.9261 13.2728C72.9261 14.1546 72.751 15.0275 72.411 15.8411C72.071 16.6546 71.5728 17.3926 70.9454 18.0121C70.3179 18.6316 69.5737 19.1203 68.7559 19.45C67.9381 19.7796 67.0629 19.9436 66.1813 19.9324Z" fill="url(#paint0_radial_4764_9590)"/>
<path d="M61.9813 19.9297H9.37891V26.6049H61.9813V19.9297Z" fill="#005CFF"/>
<path d="M101.615 10.5868C100.668 10.1123 99.5465 9.875 98.2501 9.875H89.5234V26.5797H93.2639V21.9678H98.2501C99.5443 21.9678 100.666 21.7309 101.615 21.257C102.542 20.8044 103.311 20.0832 103.822 19.1873C104.346 18.2827 104.608 17.1902 104.607 15.9095C104.606 14.6289 104.345 13.5403 103.822 12.6437C103.307 11.7537 102.539 11.0375 101.615 10.5868ZM100.157 18.0408C99.6666 18.4154 98.8979 18.6023 97.851 18.6016H93.2639V13.2412H97.851C98.8986 13.2412 99.6673 13.4324 100.157 13.815C100.647 14.1975 100.893 14.8971 100.895 15.9139C100.895 16.9579 100.649 17.6669 100.157 18.0408Z" fill="#030712"/>
<path d="M116.605 14.6341C115.542 14.1027 114.295 13.8367 112.866 13.8359C111.451 13.8359 110.209 14.102 109.138 14.6341C108.104 15.1312 107.234 15.9147 106.632 16.8915C106.034 17.8636 105.735 19.0141 105.734 20.3429C105.734 21.6551 106.034 22.7977 106.632 23.7705C107.235 24.7465 108.105 25.5295 109.138 26.0269C110.21 26.559 111.453 26.825 112.866 26.825C114.295 26.825 115.542 26.559 116.605 26.0269C117.633 25.5266 118.498 24.744 119.098 23.7705C119.697 22.7991 119.996 21.6566 119.995 20.3429C119.995 19.0127 119.696 17.8622 119.098 16.8915C118.499 15.9172 117.634 15.1341 116.605 14.6341ZM115.52 22.7492C115.017 23.2561 114.132 23.5077 112.866 23.5041C111.6 23.5005 110.714 23.2489 110.21 22.7492C109.702 22.2422 109.45 21.4405 109.455 20.344C109.455 19.2295 109.707 18.4151 110.21 17.901C110.714 17.3869 111.599 17.1288 112.866 17.1266C114.128 17.1266 115.013 17.3848 115.52 17.901C116.028 18.4173 116.279 19.2316 116.275 20.344C116.279 21.4398 116.027 22.2415 115.52 22.7492Z" fill="#030712"/>
<path d="M126.55 11.668H122.809V14.0861H120.84V17.1783H122.809V22.0642C122.809 23.6461 123.225 24.793 124.056 25.5048C124.887 26.2167 126.034 26.574 127.497 26.5769H130.588V23.2107H128.344C127.697 23.2107 127.235 23.1082 126.96 22.9001C126.685 22.6919 126.55 22.2724 126.55 21.6403V17.1783H130.588V14.0861H126.55V11.668Z" fill="#030712"/>
<path d="M137.021 11.668H133.281V14.0861H131.312V17.1783H133.282V22.0642C133.282 23.6461 133.698 24.793 134.529 25.5048C135.36 26.2167 136.507 26.574 137.969 26.5769H141.061V23.2107H138.817C138.17 23.2107 137.708 23.1082 137.433 22.9001C137.158 22.6919 137.022 22.2724 137.022 21.6403V17.1783H141.061V14.0861H137.022L137.021 11.668Z" fill="#030712"/>
<path d="M154.52 14.5089C153.771 14.0602 152.84 13.8359 151.727 13.8359C150.663 13.8359 149.778 14.0268 149.072 14.4086C148.405 14.7568 147.841 15.2751 147.439 15.911C147.058 16.5217 146.796 17.1986 146.665 17.9064H146.466V9.87109H142.727V26.5769H146.466V20.3213C146.466 19.6223 146.566 19.0446 146.766 18.588C146.967 18.1287 147.331 17.7599 147.787 17.5526C148.27 17.3211 148.927 17.2049 149.758 17.2042C150.937 17.2042 151.772 17.4163 152.262 17.8406C152.752 18.2648 152.998 19 152.998 20.0462V26.578H156.738V18.9202C156.752 18.027 156.565 17.1422 156.189 16.3317C155.828 15.5706 155.246 14.9356 154.52 14.5089Z" fill="#030712"/>
<path d="M169.312 14.6341C168.249 14.1027 167.002 13.8367 165.573 13.8359C164.159 13.8359 162.917 14.102 161.845 14.6341C160.811 15.1312 159.941 15.9147 159.339 16.8915C158.741 17.8636 158.442 19.0141 158.441 20.3429C158.441 21.6551 158.741 22.7977 159.339 23.7705C159.94 24.7463 160.809 25.5296 161.841 26.028C162.912 26.5601 164.154 26.8261 165.569 26.8261C166.998 26.8261 168.244 26.5601 169.308 26.028C170.336 25.5277 171.201 24.7451 171.8 23.7716C172.399 22.8002 172.698 21.6577 172.698 20.344C172.698 19.0137 172.399 17.8633 171.8 16.8926C171.203 15.9185 170.339 15.1351 169.312 14.6341ZM168.227 22.7492C167.72 23.2561 166.835 23.5077 165.573 23.5041C164.31 23.5006 163.425 23.2489 162.916 22.7492C162.413 22.2422 162.161 21.4405 162.161 20.344C162.161 19.2295 162.413 18.4151 162.916 17.901C163.42 17.3869 164.305 17.1288 165.573 17.1266C166.835 17.1266 167.72 17.3848 168.227 17.901C168.735 18.4173 168.989 19.2316 168.989 20.344C168.989 21.4398 168.735 22.2415 168.227 22.7492Z" fill="#030712"/>
<path d="M189.055 13.027C189.419 12.7393 190.084 12.5955 191.049 12.5955H192.744V9.87109H191.648C190.235 9.87109 189.046 10.0868 188.082 10.5182C187.118 10.9497 186.387 11.545 185.889 12.3043C185.537 12.8424 185.305 13.4501 185.209 14.0861H183.375V17.1783H185.146V26.5769H188.909V17.1783H192.749V14.0861H188.758C188.704 13.5824 188.801 13.2276 189.055 13.027Z" fill="#030712"/>
<path d="M178.424 10.5182C177.451 10.9497 176.72 11.5443 176.23 12.3022C175.883 12.8418 175.654 13.4492 175.56 14.0839H173.727V17.1762H175.498V26.5747H179.237V17.1783H183.101V14.0861H179.097C179.058 13.5824 179.16 13.2233 179.412 13.027C179.777 12.7393 180.442 12.5955 181.406 12.5955H183.101V9.87109H182.005C180.589 9.87109 179.396 10.0868 178.424 10.5182Z" fill="#030712"/>
</g>
<defs>
<radialGradient id="paint0_radial_4764_9590" cx="0" cy="0" r="1" gradientUnits="userSpaceOnUse" gradientTransform="translate(30.4141 22.5047) scale(20.7116 20.7116)">
<stop stop-color="#003FCB"/>
<stop offset="1" stop-color="#005AFF"/>
</radialGradient>
<clipPath id="clip0_4764_9590">
<rect width="200" height="40" fill="white"/>
</clipPath>
</defs>
</svg>
